<svg id="Capa_3" data-name="Capa 3" xmlns="http://www.w3.org/2000/svg" viewBox="0 0 1394.15 276.17"><defs><style>.cls-1{font-size:254.77px;fill:#00d9ff;font-family:Alone On Earth;}.cls-2{letter-spacing:-3px;}.cls-3{fill:#ff006a;}.cls-4{fill:#ffe200;}.cls-5{fill:#fdc400;}.cls-6{fill:#fff5a4;}</style></defs><title>Logo_grande</title><text class="cls-1" transform="translate(0 214.52)">A<tspan class="cls-2" x="94.27" y="0">s</tspan><tspan x="187.77" y="0">tronom</tspan><tspan class="cls-2" x="870.3" y="0">y</tspan><tspan class="cls-3" x="952.84" y="0">App</tspan></text><path class="cls-4" d="M1753.89,506.19s-68.52,3.46-90,55c0,0,27.39-16.55,39.08-16.37,0,0-21.1,35.19-15.87,67.14,0,0,29-59.61,71.33-84.31,0,0-35.37,125.48,57.7,11.26,0,0,100.94,111.32,51.65-35.48,0,0,105-75-26.87-49.06,0,0-34-139.72-60.82,4.88,0,0-117.39-35.48-26.22,46.93" transform="translate(-513.25 -356.43)"/><path class="cls-5" d="M1753.78,506.11c-48-46.43-25.64-53.71-25.64-53.71C1697.45,458.93,1753.78,506.11,1753.78,506.11Z" transform="translate(-513.25 -356.43)"/><path class="cls-5" d="M1816,538.85c-71.47,65.31-57.7-11.26-57.7-11.26C1728.08,653.33,1816,538.85,1816,538.85Z" transform="translate(-513.25 -356.43)"/><path class="cls-5" d="M1758.33,527.59c-43,26.1-71.33,84.31-71.33,84.31a139.6,139.6,0,0,1,35.49-63.27c12.73-12.89,25.29-26,38.52-29.18A64.05,64.05,0,0,0,1758.33,527.59Z" transform="translate(-513.25 -356.43)"/><path class="cls-5" d="M1718.39,526.29c-11.06,9.33-15.52,18.47-15.52,18.47-10.84-.3-39.08,16.37-39.08,16.37C1690.19,530,1718.39,526.29,1718.39,526.29Z" transform="translate(-513.25 -356.43)"/><path class="cls-5" d="M1816,538.85c44.88,41.34,63.24,35.2,63.24,35.2C1868.18,596.35,1816,538.85,1816,538.85Z" transform="translate(-513.25 -356.43)"/><path class="cls-6" d="M1810.58,400c21.74,17.32,26.25,61.9,26.25,61.9,29.94-12.94,58.13-7.74,58.13-7.74-36.72.84-58.13,7.74-58.13,7.74C1822.95,415.51,1810.58,400,1810.58,400Z" transform="translate(-513.25 -356.43)"/><path class="cls-5" d="M1753.78,506.11c6.62,4.88,10.16,7,10.16,7a76.12,76.12,0,0,0-3.59,8c-1.74-4.34-15.2-13.91-15.2-13.91C1747.46,507,1753.78,506.11,1753.78,506.11Z" transform="translate(-513.25 -356.43)"/><path class="cls-6" d="M1724.46,521.87a80.17,80.17,0,0,1,23.65-9.26C1735.67,513.6,1724.46,521.87,1724.46,521.87Z" transform="translate(-513.25 -356.43)"/><path class="cls-5" d="M1888.09,486.86c-18.91,12.39-22.23,12.93-22.23,12.93a10.06,10.06,0,0,1,1.92,3.65A243.51,243.51,0,0,0,1888.09,486.86Z" transform="translate(-513.25 -356.43)"/></svg>